# xmcd
#
# Track frame offsets:
#	150
#	17338
#	36462
#	66802
#
# Disc length: 2250 seconds
#
# Revision: 0
# Processed by: cddbd v1.5.2PL0 Copyright (c) Steve Scherf et al.
# Submitted via: EasyCDDAExtractor 2011.0.0.0
#
DISCID=2b08c804
DTITLE=Ray-J faet. Lil' Kim - Wait A Minute
DYEAR=2001
DGENRE=Hip-Hop
TTITLE0=Wait A Minute (Album Version)
TTITLE1=Wait A Minute (Soul Society Remix)
TTITLE2=Wait A Minute (Soul Society Instrumental)
TTITLE3=Wait A Minute (Enhanced Video)
EXTD=
EXTT0=
EXTT1=
EXTT2=
EXTT3=
PLAYORDER=
